<?xml version="1.0" encoding="iso-8859-1"?>
<!-- Generator: Adobe Illustrator 17.1.0, SVG Export Plug-In . SVG Version: 6.00 Build 0)  -->
<!DOCTYPE svg PUBLIC "-//W3C//DTD SVG 1.1//EN" "http://www.w3.org/Graphics/SVG/1.1/DTD/svg11.dtd">
<svg version="1.1" id="Layer_1" xmlns="http://www.w3.org/2000/svg" xmlns:xlink="http://www.w3.org/1999/xlink" x="0px" y="0px"
	 viewBox="0 0 293.742 47.792" style="enable-background:new 0 0 293.742 47.792;" xml:space="preserve">
<g>
	<path style="fill:#C19EE2;" d="M19.659,37.832c-8.825,0-16.077-7.208-16.077-15.989c0-8.869,7.252-15.989,16.077-15.989
		c4.369,0,8.3,1.748,13.368,6.597l-6.247,6.378c-3.276-3.276-5.067-4.106-7.121-4.106c-3.888,0-6.902,3.146-6.902,7.121
		c0,3.888,3.014,7.164,6.902,7.164c2.053,0,3.844-0.917,7.165-4.194l6.334,6.334C27.959,36.041,24.027,37.832,19.659,37.832z
		 M26.736,29.051c-2.446,2.141-4.674,2.927-7.077,2.927c-5.504,0-10.004-4.587-10.004-10.135c0-5.636,4.5-10.092,10.004-10.092
		c2.403,0,4.631,0.699,7.033,2.796l2.01-2.009c-2.883-2.49-5.81-3.713-9.043-3.713c-7.165,0-12.975,5.81-12.975,13.019
		c0,7.121,5.81,13.018,12.975,13.018c3.233,0,6.16-1.267,9.086-3.844L26.736,29.051z"/>
	<path style="fill:#C19EE2;" d="M48.142,37.264V6.421h9.13v22.062h15.465v8.781H48.142z M69.679,31.454H54.17V9.348H51.2v24.989
		h18.479V31.454z"/>
	<path style="fill:#C19EE2;" d="M99.647,37.832c-7.907,0-14.373-5.723-14.373-14.984V6.421h9.174v16.426
		c0,3.845,2.097,6.116,5.199,6.116s5.286-2.271,5.286-6.116V6.421h9.174v16.426C114.107,32.109,107.554,37.832,99.647,37.832z
		 M111.049,9.348h-3.058v13.499c0,5.811-3.582,9.087-8.344,9.087c-4.718,0-8.3-3.276-8.3-9.087V9.348h-3.015v13.499
		c0,7.339,5.068,12.014,11.315,12.014s11.402-4.674,11.402-12.014V9.348z"/>
	<path style="fill:#C19EE2;" d="M148.139,25.687v12.145h-9.175V25.687h-10.484v-8.781h10.484V5.854h9.175v11.053h10.528v8.781
		H148.139z M155.564,19.876H145.08V8.824h-3.015v11.052h-10.528v2.84h10.528v12.145h3.015V22.716h10.484V19.876z"/>
	<path style="fill:#C19EE2;" d="M189.857,25.687v12.145h-9.174V25.687h-10.484v-8.781h10.484V5.854h9.174v11.053h10.528v8.781
		H189.857z M197.284,19.876h-10.484V8.824h-3.015v11.052h-10.528v2.84h10.528v12.145h3.015V22.716h10.484V19.876z"/>
	<path style="fill:#C19EE2;" d="M213.884,15.159V6.421h24.639v8.737H213.884z M213.884,26.255V17.43h24.639v8.825H213.884z
		 M213.884,37.264v-8.781h24.639v8.781H213.884z M235.421,9.348h-18.479v2.883h18.479V9.348z M235.421,20.401h-18.479v2.883h18.479
		V20.401z M235.421,31.454h-18.479v2.883h18.479V31.454z"/>
	<path style="fill:#C19EE2;" d="M277.971,39.317l-9.13-11.664l-8.17,10.484l-4.849-0.786V6.421h25.425l1.093,4.15l-7.907,10.004
		l9.698,12.451L277.971,39.317z M270.588,20.532l8.432-10.703l-0.175-0.481H258.88v25.469l0.35,0.087l9.611-12.232l9.436,12.058
		l1.835-1.922L270.588,20.532z M261.632,27.915V12.231h12.014L261.632,27.915z M264.735,15.159v4.369l3.363-4.369H264.735z"/>
</g>
<g>
</g>
<g>
</g>
<g>
</g>
<g>
</g>
<g>
</g>
<g>
</g>
</svg>
